<svg width="345" height="81" viewBox="0 0 345 81" fill="none" xmlns="http://www.w3.org/2000/svg">
<path d="M313.631 69.9523C303.084 69.9523 301.055 60.8651 307.384 48.3702C313.55 35.7941 325.072 26.6258 335.213 26.6258C345.437 26.6258 347.708 35.6318 341.38 48.3702C335.214 60.9462 324.504 69.9523 313.631 69.9523ZM300.487 16.9706C304.625 16.9706 303.489 26.6258 298.134 36.1998H309.331C321.502 10.4797 312.252 0.5 301.786 0.5C284.828 0.5 265.761 17.6197 253.753 39.6075C241.177 62.6501 242.637 80.5 258.784 80.5C277.12 80.5 294.889 64.0294 307.465 40.9868H283.53L278.824 48.6136H294.564L295.132 41.717C287.424 55.1856 278.5 63.9483 273.469 63.9483C268.52 63.9483 270.467 53.9685 278.175 40.5C285.964 26.9503 295.132 16.9706 300.487 16.9706ZM331.806 48.289C335.863 41.4736 336.349 36.6055 333.915 36.6055C331.238 36.6055 326.938 41.6359 322.962 48.289C318.824 55.0233 318.337 59.8915 320.852 59.8915C323.53 59.8915 327.83 54.861 331.806 48.289Z" fill="black"/>
<path d="M75.0683 40.7493V58.5857C75.0683 61.8827 75.2304 65.2068 75.5547 68.5578H66.1501C65.7718 67.585 65.5285 66.504 65.4204 65.3149H65.0151C64.0962 66.2878 62.9071 67.1796 61.4478 67.9903C60.0425 68.747 57.9075 69.1254 55.0429 69.1254C51.3135 69.1254 48.2867 68.0174 45.9626 65.8013C43.6925 63.5312 42.5575 60.3423 42.5575 56.2345C42.5575 52.0727 44.26 48.8568 47.6651 46.5867C51.1243 44.2626 56.5293 43.1005 63.88 43.1005H65.4204V40.8304C65.4204 38.6144 64.8799 37.074 63.7989 36.2092C62.718 35.2903 61.0154 34.8309 58.6913 34.8309C57.0698 34.8309 55.3942 35.0471 53.6646 35.4795C51.9351 35.8578 50.3406 36.3713 48.8813 37.0199C47.476 37.6145 46.3409 38.236 45.4761 38.8846V30.8583C46.9355 29.9935 48.8813 29.1557 51.3135 28.345C53.7998 27.5342 56.6374 27.1288 59.8263 27.1288C64.961 27.1288 68.7715 28.1558 71.2578 30.2097C73.7981 32.2635 75.0683 35.7768 75.0683 40.7493ZM65.4204 58.8289V49.9918H64.0422C59.9344 49.9918 56.9617 50.4783 55.124 51.4512C53.3403 52.37 52.4485 53.9915 52.4485 56.3156C52.4485 58.0452 52.962 59.4505 53.9889 60.5315C55.0159 61.5584 56.5293 62.0719 58.5291 62.0719C60.2587 62.0719 61.691 61.7476 62.8261 61.099C63.9611 60.4504 64.8259 59.6937 65.4204 58.8289ZM92.5804 39.29V68.5578H82.9325V27.7774H92.3371L92.5804 31.1826H93.0668C94.0397 30.2097 95.418 29.2908 97.2016 28.426C98.9852 27.5612 101.309 27.1288 104.174 27.1288C108.12 27.1288 110.957 28.0747 112.687 29.9664C114.416 31.8041 115.281 34.7498 115.281 38.8036V68.5578H105.633V39.7764C105.633 36.7497 103.985 35.2363 100.688 35.2363C98.9582 35.2363 97.3908 35.6417 95.9855 36.4524C94.6342 37.2631 93.4992 38.209 92.5804 39.29ZM137.171 69.3686C132.631 69.3686 128.929 67.5579 126.064 63.9366C123.199 60.3153 121.767 55.1536 121.767 48.4514C121.767 41.6412 123.226 36.3713 126.145 32.6419C129.118 28.8584 132.928 26.9667 137.577 26.9667C141.901 26.9667 145.306 28.8314 147.792 32.5608V12.2112H157.44V68.5578H148.522L148.035 63.288C145.441 67.3417 141.82 69.3686 137.171 69.3686ZM140.009 34.5877C137.252 34.5877 135.171 35.6957 133.766 37.9117C132.415 40.1278 131.739 43.641 131.739 48.4514C131.739 53.0456 132.388 56.4237 133.685 58.5857C134.982 60.6936 136.955 61.7476 139.603 61.7476C142.306 61.7476 144.333 60.6666 145.684 58.5046C147.089 56.3426 147.792 52.8835 147.792 48.1271C147.792 43.4248 147.143 39.9926 145.846 37.8307C144.549 35.6687 142.603 34.5877 140.009 34.5877ZM196.437 65.8013C195.031 66.7742 193.194 67.612 190.924 68.3146C188.653 69.0173 185.978 69.3686 182.897 69.3686C176.736 69.3686 171.979 67.639 168.628 64.1798C165.277 60.6666 163.602 55.3698 163.602 48.2893C163.602 44.1815 164.223 40.5331 165.466 37.3442C166.763 34.1012 168.682 31.5609 171.223 29.7232C173.817 27.8855 177.06 26.9667 180.951 26.9667C184.194 26.9667 187.005 27.6153 189.383 28.9125C191.761 30.2097 193.599 32.2906 194.896 35.1552C196.193 37.9658 196.842 41.7493 196.842 46.5056V51.6133H173.574C173.79 55.0184 174.655 57.5588 176.168 59.2343C177.681 60.9098 180.195 61.7476 183.708 61.7476C186.086 61.7476 188.41 61.3693 190.68 60.6126C193.004 59.8559 194.923 58.964 196.437 57.9371V65.8013ZM180.789 34.5877C176.249 34.5877 173.844 37.8847 173.574 44.4788H187.032V43.668C187.032 41.1277 186.573 38.9927 185.654 37.2631C184.789 35.4795 183.167 34.5877 180.789 34.5877ZM226.11 68.5578L217.435 54.7752L209.246 68.5578H199.436L212.246 47.3164L199.923 27.7774H210.787L218.57 40.1007L225.542 27.7774H235.19L223.678 47.5596L236.974 68.5578H226.11ZM28.2884 68.5578H18.4784V52.424L-0.0065918 12.2112H10.2088L24.64 43.668C25.5589 45.6679 26.2885 47.3704 26.829 48.7757C27.3695 50.1269 27.7479 51.5593 27.9641 53.0726C28.1803 54.586 28.2884 56.5588 28.2884 58.9911V68.5578ZM34.6932 39.4521H24.7211L36.7201 12.2112H46.6923L34.6932 39.4521Z" fill="black"/>
</svg>
